<svg version="1.1" xmlns="http://www.w3.org/2000/svg" xmlns:xlink="http://www.w3.org/1999/xlink" width="104" height="104" viewBox="0,0,104,104"><g transform="translate(-188,-128)"><g stroke="none" stroke-miterlimit="10"><path d="M188,180c0,-28.71881 23.28119,-52 52,-52c28.71881,0 52,23.28119 52,52c0,28.71881 -23.28119,52 -52,52c-28.71881,0 -52,-23.28119 -52,-52z" fill="#cccccc" stroke-width="0"/><path d="M218,186.5c-1.22422,0 -1.84896,-0.59949 -2.16777,-1.21134c-3.2893,-2.01469 -5.57393,-4.17626 -8.33223,-6.92133v2.63267c0,1.38071 -1.11929,2.5 -2.5,2.5c-1.38071,0 -2.5,-1.11929 -2.5,-2.5v-3c-0.71147,-1.12455 -0.59867,-2.70824 -0.05138,-4.3026c-0.03776,-3.5474 0.05664,-7.01428 1.17967,-10.48797c0,0 0.79057,-2.37171 3.16228,-1.58114c2.37171,0.79057 1.58114,3.16228 1.58114,3.16228c-0.29958,0.86492 -0.51306,1.74261 -0.66312,2.62976c1.27447,-0.43845 2.67568,-0.5543 3.98596,-0.9016l3.30546,-0.01873c0,0 2.5,0 2.5,2.5c0,2.5 -2.5,2.5 -2.5,2.5l-2.69454,-0.01873c-1.7741,0.4007 -3.25653,0.14694 -4.17883,1.83306c-0.03872,0.07079 -0.07391,0.14266 -0.1059,0.21552c1.32392,-0.3874 2.41371,0.70239 2.41371,0.70239c3.04139,3.04429 5.09814,5.1451 8.80591,7.26383l1.25965,2.50394c0,0 0,2.5 -2.5,2.5z" fill="#9966ff" stroke-width="0.5"/><path d="M227.10023,175.1868c-0.49504,0.70515 -0.04477,1.77016 0.01539,3.31053c0.01664,0.42609 0.1057,1.70237 0.07959,1.27676c-0.05217,-0.85056 -0.15887,-2.7602 -0.09498,-4.58729zM228.88881,170.67473c4.79273,-1.81165 9.21494,3.82664 12.28637,7.44827c0.66857,-0.37353 1.79724,-0.68611 2.92591,0.44256c1.76777,1.76777 0,3.53553 0,3.53553l-4.86887,1.33333c-1.77009,-1.77404 -3.2358,-3.83222 -4.97217,-5.63927c-0.073,-0.07597 -1.12312,-0.78362 -1.97679,-1.50817c0.14265,0.95158 0.12328,1.94737 -0.16171,2.85244c-0.57421,1.82354 -0.94516,4.22148 -2.65009,5.08647c-4.30483,2.18403 -6.49004,-1.91758 -7.25374,-4.72324c-0.22107,-0.81215 0.04315,-6.6726 0.28667,-7.09082c0.66365,-1.13976 2.17017,-1.49942 3.25526,-2.24912c0,0 1.86873,-1.06785 3.12916,0.51201z" fill="#9966ff" stroke-width="0.5"/><path d="M248.16667,182c0,-0.48338 0.09346,-0.87329 0.24424,-1.18781l-0.35349,-0.77768l0.08971,-0.04078c-0.09084,-0.15132 -0.17675,-0.30601 -0.25713,-0.46448c-0.34824,-0.68659 -0.45813,-1.43909 -0.39205,-2.1977c-0.98218,-2.60568 -1.81144,-5.17614 -3.32406,-7.73854c0,0 -1.25968,-2.15945 0.89977,-3.41912c2.15945,-1.25968 3.41912,0.89977 3.41912,0.89977c0.97306,1.68547 1.69314,3.3616 2.34882,5.0431c4.74159,-2.71306 13.41903,0.39682 11.94786,7.01625c-0.34568,1.55536 -1.46363,2.94823 -2.7158,3.93348c-1.12112,0.88214 -4.52732,1.18717 -6.30428,1.36633c-0.45254,0.45336 -1.0782,0.73384 -1.76938,0.73384c-0.67857,0 -1.29399,-0.27035 -1.74444,-0.70921c-0.70956,-0.12286 -2.08889,-0.60049 -2.08889,-2.45746zM257.25968,178.93351c0.99456,-0.43127 0.40504,-2.46905 -0.32007,-2.66953c-1.20976,-0.33448 -2.54712,-0.06767 -3.75565,0.27123c-0.28169,0.07899 -0.416,0.24055 -0.47014,0.44034c0.2976,0.71957 0.61588,1.4426 0.96903,2.17021l-0.04046,0.27698l0.11629,-0.02907l0.01259,0.05038c1.19471,-0.04886 2.40821,-0.04213 3.4884,-0.51053z" fill="#9966ff" stroke-width="0.5"/><path d="M284.17504,179.43788c-0.9162,-0.15204 -1.85821,-0.42793 -2.39092,0.55785c-0.11329,0.20964 -0.60502,3.32626 0.40648,2.84168c1.27138,-0.60908 2.05226,-1.93427 3.04164,-2.93851l-1.04044,-0.21201c0,0 -0.01349,-0.09442 -0.01675,-0.24901zM287.16361,176.8507c1.70917,0.24775 1.97793,2.12908 1.97793,2.12908l-0.37377,4.45465c-1.46178,1.44408 -3.89797,4.38309 -6.29169,4.39482c-2.73768,0.01342 -4.61358,-1.64615 -5.47321,-3.80571c-1.36955,2.99164 -4.18187,5.00193 -8.16673,3.52235c-1.35884,-0.50454 -1.62517,-2.41944 -2.20531,-3.74777c-0.50514,-1.1566 -0.73871,-2.64058 -0.88359,-4.07835c-0.4013,-0.15888 -0.80394,-0.46456 -1.16069,-0.99969c-1.38675,-2.08013 0.69338,-3.46688 0.69338,-3.46688l0.93366,-0.62087c0.92275,-0.63854 1.70944,-1.54398 2.76826,-1.91561c1.53583,-0.53905 3.27364,-1.24154 4.82519,-0.74955c1.431,0.45376 2.36445,1.95694 3.10342,3.26368c0.33219,0.58742 0.58283,1.23877 0.75476,1.92749c2.11923,-3.21943 3.69605,-2.53017 7.00146,-2.65834c0,0 2.39945,0 2.49695,2.3507zM270.59255,177.35535c0.21638,1.62043 0.59122,3.2214 0.77663,4.84653c0.03558,0.31183 -0.47983,0.76678 -0.20531,0.9189c0.295,0.16346 0.60547,-0.32346 0.83653,-0.56913c1.51008,-1.60549 0.86892,-3.13558 0.42249,-5.11584c-0.05655,-0.25083 0.02571,-0.70856 -0.22991,-0.73632c-0.59759,-0.06489 -1.11371,0.24108 -1.60043,0.65586z" fill="#9966ff" stroke-width="0.5"/><path d="M250.66667,211.83333c-2.5,0 -2.5,-2.5 -2.5,-2.5v-0.33333c0.00274,-1.80831 -0.1187,-3.61845 -0.32068,-5.41545c-0.18122,-2.10641 -0.65146,-4.19013 -1.24629,-6.21892c-0.58012,-1.97864 -1.53659,-3.83115 -2.44703,-5.68119c-0.13061,-0.26541 0.03269,-1.08966 -0.16711,-0.87153c-0.2734,0.29848 0.0915,0.87388 -0.1395,1.20627c-0.61005,0.87781 -1.57628,1.4517 -2.27184,2.26342c-2.94737,3.43964 -6.40534,8.50552 -11.72052,8.50429c-1.36869,-0.00032 -2.04317,-1.82253 -3.03309,-2.76771c-1.7557,-1.67636 -3.79041,-4.33961 -5.64339,-5.8588c-0.18288,-0.14994 0.04457,0.47477 0.01429,0.70931c-0.08977,0.69527 -0.31703,1.37097 -0.37311,2.06977c-0.06383,0.79542 0.01306,1.5959 0.01493,2.39387c0.00701,3.00077 -0.08359,5.39744 -0.3886,7.83758l0.38123,-0.02933l0.33123,4.306c0.00627,0.07219 0.00947,0.14526 0.00947,0.21907c0,1.38071 -1.11929,2.5 -2.5,2.5c-1.18975,0 -2.18539,-0.83109 -2.43804,-1.9444l-0.64471,-2.57884c-0.69595,-2.43419 -0.95876,-5.03699 -0.73818,-7.55886c0,0 0.1087,-1.08698 0.90091,-1.75203c-0.1227,-4.47902 0.09375,-10.71052 5.07613,-11.15959c1.20787,-0.10887 5.28377,3.15155 6.52973,4.31432c1.08914,1.01641 2.2383,1.99 3.16021,3.16021c0.26163,0.3321 -0.10953,1.33633 0.30024,1.23229c1.01946,-0.25885 1.68835,-1.25746 2.48835,-1.94034c2.64919,-2.26134 4.32074,-4.93751 6.85263,-7.29195c1.03579,-0.9632 1.78072,-2.73276 3.19383,-2.79373c1.70807,-0.0737 3.28256,1.26102 4.49956,2.4618c3.48875,3.44226 4.53495,10.15864 4.97335,14.76656c0.21589,1.96417 0.34329,3.94189 0.34599,5.91789v0.33333c0,0 0,2.5 -2.5,2.5z" fill="#9966ff" stroke-width="0.5"/></g></g></svg>