<svg version="1.1" xmlns="http://www.w3.org/2000/svg" xmlns:xlink="http://www.w3.org/1999/xlink" width="104" height="104" viewBox="0,0,104,104"><g transform="translate(-188,-128)"><g data-paper-data="{&quot;isPaintingLayer&quot;:true}" fill-rule="nonzero" stroke="none" stroke-linecap="butt" stroke-linejoin="miter" stroke-miterlimit="10" stroke-dasharray="" stroke-dashoffset="0" style="mix-blend-mode: normal"><path d="M188,180c0,-28.71881 23.28119,-52 52,-52c28.71881,0 52,23.28119 52,52c0,28.71881 -23.28119,52 -52,52c-28.71881,0 -52,-23.28119 -52,-52z" data-paper-data="{&quot;origPos&quot;:null}" fill="#cccccc" stroke-width="0"/><path d="M215.03885,178.61239c-0.01403,1.86186 -0.14713,3.60431 -0.47104,4.97606c-0.01721,0.53093 -0.02753,1.06142 -0.02928,1.59137v3.52949c0,1.38071 -1.11929,2.5 -2.5,2.5c-1.38071,0 -2.5,-1.11929 -2.5,-2.5v-5c-0.37828,-0.76615 0,-1.7089 0,-2.56335c0,-1.66666 -0.00013,-3.33334 0,-5c0.00025,-3.19171 0.03734,-3.40208 -0.20144,-7.27845c-0.07691,-1.24857 -0.84088,-2.60069 -0.32208,-3.73897c3.84197,-8.42952 21.1509,-1.99756 15.93179,7.23162c-1.23442,2.18289 -3.88395,3.17336 -5.82457,4.7617l-1.35778,1.13162c0,0 -1.34746,1.12288 -2.72561,0.35891zM215.27493,173.81962l0.68113,-0.56754c0.60532,-0.49509 5.30961,-3.21421 4.86313,-4.44227c-0.74144,-2.03937 -2.66485,-2.43007 -4.53793,-2.35601c-0.87737,0.03469 -2.5333,-0.41972 -2.59436,0.45621c-0.03542,0.50811 0.55374,0.89198 0.61871,1.39716c0.00597,0.0464 0.01196,0.09321 0.01796,0.14041c1.18715,0.70592 1.13003,2.24808 1.13003,2.24808c-0.03858,1.04056 -0.10229,2.0821 -0.17866,3.12397z" fill="#9966ff" stroke-width="0.5"/><path d="M233.82429,177.50188c-1.14491,1.88835 -2.8519,5.62502 -1.75249,7.87957c0.1866,0.38268 0.60604,0.68598 1.02491,0.76217c1.8174,0.33058 8.08966,0.92145 9.81163,-0.39023c2.58826,-1.97156 2.9362,-8.36602 0.29649,-10.48588c-2.1479,-1.72492 -5.76704,-0.26308 -7.6484,0.91723l0.02618,0.27304c0,0 -0.69014,0.92018 -1.75833,1.04411zM231.51564,173.55667c0.04081,-0.06402 0.06698,-0.0989 0.06698,-0.0989l1.40134,-1.5605c3.92898,-2.28332 9.37465,-3.64238 13.43729,-0.45792c5.27702,4.13635 4.45756,14.61022 -0.62027,18.39236c-2.53426,1.88761 -6.36479,1.52115 -9.30457,1.37674c-1.72891,-0.08492 -3.55864,0.21927 -5.17818,-0.39183c-1.43272,-0.5406 -2.73483,-1.61426 -3.55893,-2.90491c-2.40712,-3.76985 -0.08583,-9.80008 1.84606,-13.09422c0,0 0.69332,-1.15554 1.91029,-1.26083z" fill="#9966ff" stroke-width="0.5"/><path d="M285.54688,163.66978c2.34949,0.85436 1.49512,3.20384 1.49512,3.20384l-0.82372,2.19973c-0.25002,3.36159 -0.11524,9.95434 -3.18932,12.22944c-1.88611,1.39589 -4.30822,2.76434 -6.62359,2.38359c-1.34328,-0.2209 -1.52741,-2.16538 -2.09324,-3.49493c-0.00466,2.31012 -0.24158,4.59435 -1.21596,6.261c-1.31507,2.24937 -2.81607,5.26074 -5.39081,5.66048c-1.77525,0.27561 -2.34307,-2.7545 -3.21712,-4.32406c-3.02418,-5.43061 -4.24046,-12.08348 -8.83737,-16.56395c0,0 -1.76776,-1.76776 0,-3.53553c1.76777,-1.76776 3.53553,0 3.53553,0c3.62655,3.69781 6.27832,9.04161 8.31925,13.83906c0.2829,0.665 0.60897,1.32399 0.89824,1.9934c0.30223,-0.9461 0.65422,-1.90387 0.73501,-2.83233c0.1855,-2.13172 -0.01035,-4.27954 -0.01035,-6.41932v-2.75031c0,-1.38071 1.11929,-2.5 2.5,-2.5c0.76522,0 1.45013,0.3438 1.90872,0.88536l2.73973,3.19635l-0.02596,0.02225c0.07128,0.07271 0.14149,0.14664 0.21053,0.22186c1.14083,1.24295 1.75731,2.91527 2.27659,4.52051c0.13045,0.40325 -0.84783,1.24638 -0.4268,1.19771c0.93146,-0.10766 1.82729,-2.81184 1.93466,-3.25523c0.79294,-3.27419 0.81383,-4.65682 1.0872,-7.80128l1.00982,-2.84251c0,0 0.85435,-2.34949 3.20384,-1.49513z" fill="#9966ff" stroke-width="0.5"/></g></g></svg>